<svg xmlns="http://www.w3.org/2000/svg" viewBox="0 0 232 232" width="232" height="232"><rect width="232" height="232" fill="#fff"/><rect x="80" y="16" width="8" height="8"/><rect x="88" y="16" width="8" height="8"/><rect x="96" y="16" width="8" height="8"/><rect x="104" y="16" width="8" height="8"/><rect x="120" y="16" width="8" height="8"/><rect x="80" y="24" width="8" height="8"/><rect x="96" y="24" width="8" height="8"/><rect x="112" y="24" width="8" height="8"/><rect x="120" y="24" width="8" height="8"/><rect x="144" y="24" width="8" height="8"/><rect x="88" y="32" width="8" height="8"/><rect x="112" y="32" width="8" height="8"/><rect x="120" y="32" width="8" height="8"/><rect x="128" y="32" width="8" height="8"/><rect x="80" y="40" width="8" height="8"/><rect x="104" y="40" width="8" height="8"/><rect x="112" y="40" width="8" height="8"/><rect x="88" y="48" width="8" height="8"/><rect x="104" y="48" width="8" height="8"/><rect x="112" y="48" width="8" height="8"/><rect x="120" y="48" width="8" height="8"/><rect x="128" y="48" width="8" height="8"/><rect x="136" y="48" width="8" height="8"/><rect x="144" y="48" width="8" height="8"/><rect x="112" y="56" width="8" height="8"/><rect x="128" y="56" width="8" height="8"/><rect x="80" y="64" width="8" height="8"/><rect x="96" y="64" width="8" height="8"/><rect x="112" y="64" width="8" height="8"/><rect x="128" y="64" width="8" height="8"/><rect x="144" y="64" width="8" height="8"/><rect x="80" y="72" width="8" height="8"/><rect x="88" y="72" width="8" height="8"/><rect x="112" y="72" width="8" height="8"/><rect x="120" y="72" width="8" height="8"/><rect x="128" y="72" width="8" height="8"/><rect x="136" y="72" width="8" height="8"/><rect x="144" y="72" width="8" height="8"/><rect x="16" y="80" width="8" height="8"/><rect x="32" y="80" width="8" height="8"/><rect x="40" y="80" width="8" height="8"/><rect x="56" y="80" width="8" height="8"/><rect x="64" y="80" width="8" height="8"/><rect x="72" y="80" width="8" height="8"/><rect x="96" y="80" width="8" height="8"/><rect x="120" y="80" width="8" height="8"/><rect x="128" y="80" width="8" height="8"/><rect x="136" y="80" width="8" height="8"/><rect x="144" y="80" width="8" height="8"/><rect x="160" y="80" width="8" height="8"/><rect x="184" y="80" width="8" height="8"/><rect x="200" y="80" width="8" height="8"/><rect x="208" y="80" width="8" height="8"/><rect x="16" y="88" width="8" height="8"/><rect x="24" y="88" width="8" height="8"/><rect x="56" y="88" width="8" height="8"/><rect x="80" y="88" width="8" height="8"/><rect x="104" y="88" width="8" height="8"/><rect x="112" y="88" width="8" height="8"/><rect x="144" y="88" width="8" height="8"/><rect x="152" y="88" width="8" height="8"/><rect x="200" y="88" width="8" height="8"/><rect x="32" y="96" width="8" height="8"/><rect x="48" y="96" width="8" height="8"/><rect x="64" y="96" width="8" height="8"/><rect x="72" y="96" width="8" height="8"/><rect x="80" y="96" width="8" height="8"/><rect x="104" y="96" width="8" height="8"/><rect x="128" y="96" width="8" height="8"/><rect x="144" y="96" width="8" height="8"/><rect x="168" y="96" width="8" height="8"/><rect x="16" y="104" width="8" height="8"/><rect x="32" y="104" width="8" height="8"/><rect x="72" y="104" width="8" height="8"/><rect x="80" y="104" width="8" height="8"/><rect x="88" y="104" width="8" height="8"/><rect x="96" y="104" width="8" height="8"/><rect x="104" y="104" width="8" height="8"/><rect x="112" y="104" width="8" height="8"/><rect x="120" y="104" width="8" height="8"/><rect x="128" y="104" width="8" height="8"/><rect x="136" y="104" width="8" height="8"/><rect x="144" y="104" width="8" height="8"/><rect x="152" y="104" width="8" height="8"/><rect x="160" y="104" width="8" height="8"/><rect x="168" y="104" width="8" height="8"/><rect x="184" y="104" width="8" height="8"/><rect x="192" y="104" width="8" height="8"/><rect x="16" y="112" width="8" height="8"/><rect x="32" y="112" width="8" height="8"/><rect x="64" y="112" width="8" height="8"/><rect x="80" y="112" width="8" height="8"/><rect x="88" y="112" width="8" height="8"/><rect x="136" y="112" width="8" height="8"/><rect x="152" y="112" width="8" height="8"/><rect x="160" y="112" width="8" height="8"/><rect x="176" y="112" width="8" height="8"/><rect x="192" y="112" width="8" height="8"/><rect x="200" y="112" width="8" height="8"/><rect x="208" y="112" width="8" height="8"/><rect x="40" y="120" width="8" height="8"/><rect x="48" y="120" width="8" height="8"/><rect x="104" y="120" width="8" height="8"/><rect x="120" y="120" width="8" height="8"/><rect x="136" y="120" width="8" height="8"/><rect x="144" y="120" width="8" height="8"/><rect x="160" y="120" width="8" height="8"/><rect x="168" y="120" width="8" height="8"/><rect x="176" y="120" width="8" height="8"/><rect x="208" y="120" width="8" height="8"/><rect x="24" y="128" width="8" height="8"/><rect x="32" y="128" width="8" height="8"/><rect x="64" y="128" width="8" height="8"/><rect x="80" y="128" width="8" height="8"/><rect x="96" y="128" width="8" height="8"/><rect x="112" y="128" width="8" height="8"/><rect x="128" y="128" width="8" height="8"/><rect x="144" y="128" width="8" height="8"/><rect x="176" y="128" width="8" height="8"/><rect x="192" y="128" width="8" height="8"/><rect x="200" y="128" width="8" height="8"/><rect x="16" y="136" width="8" height="8"/><rect x="32" y="136" width="8" height="8"/><rect x="48" y="136" width="8" height="8"/><rect x="80" y="136" width="8" height="8"/><rect x="88" y="136" width="8" height="8"/><rect x="96" y="136" width="8" height="8"/><rect x="112" y="136" width="8" height="8"/><rect x="120" y="136" width="8" height="8"/><rect x="144" y="136" width="8" height="8"/><rect x="152" y="136" width="8" height="8"/><rect x="168" y="136" width="8" height="8"/><rect x="176" y="136" width="8" height="8"/><rect x="208" y="136" width="8" height="8"/><rect x="32" y="144" width="8" height="8"/><rect x="40" y="144" width="8" height="8"/><rect x="56" y="144" width="8" height="8"/><rect x="64" y="144" width="8" height="8"/><rect x="80" y="144" width="8" height="8"/><rect x="88" y="144" width="8" height="8"/><rect x="104" y="144" width="8" height="8"/><rect x="136" y="144" width="8" height="8"/><rect x="144" y="144" width="8" height="8"/><rect x="152" y="144" width="8" height="8"/><rect x="160" y="144" width="8" height="8"/><rect x="168" y="144" width="8" height="8"/><rect x="176" y="144" width="8" height="8"/><rect x="184" y="144" width="8" height="8"/><rect x="192" y="144" width="8" height="8"/><rect x="200" y="144" width="8" height="8"/><rect x="208" y="144" width="8" height="8"/><rect x="80" y="152" width="8" height="8"/><rect x="112" y="152" width="8" height="8"/><rect x="120" y="152" width="8" height="8"/><rect x="144" y="152" width="8" height="8"/><rect x="176" y="152" width="8" height="8"/><rect x="192" y="152" width="8" height="8"/><rect x="208" y="152" width="8" height="8"/><rect x="80" y="160" width="8" height="8"/><rect x="104" y="160" width="8" height="8"/><rect x="112" y="160" width="8" height="8"/><rect x="144" y="160" width="8" height="8"/><rect x="160" y="160" width="8" height="8"/><rect x="176" y="160" width="8" height="8"/><rect x="192" y="160" width="8" height="8"/><rect x="200" y="160" width="8" height="8"/><rect x="208" y="160" width="8" height="8"/><rect x="80" y="168" width="8" height="8"/><rect x="88" y="168" width="8" height="8"/><rect x="112" y="168" width="8" height="8"/><rect x="144" y="168" width="8" height="8"/><rect x="176" y="168" width="8" height="8"/><rect x="200" y="168" width="8" height="8"/><rect x="208" y="168" width="8" height="8"/><rect x="88" y="176" width="8" height="8"/><rect x="96" y="176" width="8" height="8"/><rect x="104" y="176" width="8" height="8"/><rect x="112" y="176" width="8" height="8"/><rect x="120" y="176" width="8" height="8"/><rect x="144" y="176" width="8" height="8"/><rect x="152" y="176" width="8" height="8"/><rect x="160" y="176" width="8" height="8"/><rect x="168" y="176" width="8" height="8"/><rect x="176" y="176" width="8" height="8"/><rect x="184" y="176" width="8" height="8"/><rect x="80" y="184" width="8" height="8"/><rect x="96" y="184" width="8" height="8"/><rect x="112" y="184" width="8" height="8"/><rect x="120" y="184" width="8" height="8"/><rect x="128" y="184" width="8" height="8"/><rect x="152" y="184" width="8" height="8"/><rect x="160" y="184" width="8" height="8"/><rect x="176" y="184" width="8" height="8"/><rect x="184" y="184" width="8" height="8"/><rect x="192" y="184" width="8" height="8"/><rect x="200" y="184" width="8" height="8"/><rect x="208" y="184" width="8" height="8"/><rect x="80" y="192" width="8" height="8"/><rect x="96" y="192" width="8" height="8"/><rect x="104" y="192" width="8" height="8"/><rect x="112" y="192" width="8" height="8"/><rect x="120" y="192" width="8" height="8"/><rect x="144" y="192" width="8" height="8"/><rect x="152" y="192" width="8" height="8"/><rect x="160" y="192" width="8" height="8"/><rect x="176" y="192" width="8" height="8"/><rect x="192" y="192" width="8" height="8"/><rect x="200" y="192" width="8" height="8"/><rect x="88" y="200" width="8" height="8"/><rect x="96" y="200" width="8" height="8"/><rect x="136" y="200" width="8" height="8"/><rect x="160" y="200" width="8" height="8"/><rect x="176" y="200" width="8" height="8"/><rect x="192" y="200" width="8" height="8"/><rect x="80" y="208" width="8" height="8"/><rect x="88" y="208" width="8" height="8"/><rect x="112" y="208" width="8" height="8"/><rect x="128" y="208" width="8" height="8"/><rect x="152" y="208" width="8" height="8"/><rect x="168" y="208" width="8" height="8"/><rect x="176" y="208" width="8" height="8"/><rect x="184" y="208" width="8" height="8"/><rect x="192" y="208" width="8" height="8"/><rect x="200" y="208" width="8" height="8"/><rect x="208" y="208" width="8" height="8"/><rect x="24.4" y="24.4" width="39.2" height="39.2" fill="none"/><path d="M63.6,16H16V72H72V16Zm0,47.6H24.4V24.4H63.6Z"/><rect x="168.4" y="24.4" width="39.2" height="39.2" fill="none"/><path d="M207.6,16H160V72h56V16Zm0,47.6H168.4V24.4h39.2Z"/><rect x="24.4" y="168.4" width="39.2" height="39.2" fill="none"/><path d="M63.6,160H16v56H72V160Zm0,47.6H24.4V168.4H63.6Z"/><rect x="32" y="32" width="24" height="24"/><rect x="176" y="32" width="24" height="24"/><rect x="32" y="176" width="24" height="24"/></svg>